<svg xmlns:xlink="http://www.w3.org/1999/xlink" preserveAspectRatio="xMidYMid meet" data-bbox="0 0 254.76 38.14" viewBox="0 0 254.76 38.14" xmlns="http://www.w3.org/2000/svg" data-type="color" role="presentation" aria-hidden="true" aria-label="" width="254.76"  height="38.14" ><defs><style>#comp-kbgakxea_r_comp-md99tli6 svg [data-color="1"] {fill: #580388;}</style></defs>
    <g>
        <path d="m16.98 31.12-6.97-10.48-3.56 4.4.05 11.95c0 .21-.21.42-.42.42H.42c-.21 0-.42-.21-.42-.42l.21-18.13L0 1.15C0 .94.21.73.42.73h5.66c.21 0 .42.21.42.42l-.1 16.3 12.15-16.4c.16-.16.42-.31.68-.31h6.76c.16 0 .26.21.16.31L14.2 15.56l14.62 21.48c.05.16 0 .37-.21.37h-7.07a.74.74 0 0 1-.63-.37z" fill="#580388" data-color="1"></path>
        <path d="M30.49 37.41c-.21 0-.42-.21-.42-.42l.21-18.18-.21-17.66c0-.21.21-.42.42-.42h23.53c.21 0 .42.21.42.42v4.19c0 .21-.21.42-.42.42H36.57l-.16 9.69H52.6c.21 0 .42.21.42.42v4.19c0 .21-.21.42-.42.42H36.41l.16 11.89h17.87c.21 0 .42.21.42.42v4.19c0 .21-.21.42-.42.42H30.49Z" fill="#580388" data-color="1"></path>
        <path d="M72.1 23.21h-8.44l.05 13.78c0 .21-.21.42-.42.42h-5.66c-.21 0-.42-.21-.42-.42l.21-19.49-.21-16.35c0-.21.21-.42.42-.42h13.94c8.75 0 13.99 3.67 13.99 10.79 0 4.93-2.67 7.96-7.07 9.17 4.03.52 6.13 2.99 6.76 7.75l1.05 8.54c.05.21-.16.42-.37.42h-5.61c-.21 0-.42-.21-.47-.42l-.84-6.65c-.68-5.55-2.46-7.13-6.92-7.13Zm-8.49-5.92v.94h8.49c4.09 0 7.23-1.78 7.23-6.29 0-4.14-2.72-6.24-7.44-6.24h-8.23l-.05 11.58Z" fill="#580388" data-color="1"></path>
        <path d="m94.42 20.64.05 16.35c0 .21-.21.42-.42.42h-5.24c-.21 0-.42-.21-.42-.42l.16-18.02-.16-17.82c0-.21.21-.42.42-.42h6.86c.26 0 .52.16.63.37l16.98 28.19-.05-1.83-.21-8.8V1.15c0-.21.21-.42.42-.42h5.19c.21 0 .42.21.42.42l-.16 17.82.16 18.02c0 .21-.21.42-.42.42h-7.13a.74.74 0 0 1-.63-.37L94.16 9.27l.1 2.57z" fill="#580388" data-color="1"></path>
        <path d="M123.08 37.41c-.21 0-.42-.21-.42-.42l.21-18.08-.21-17.76c0-.21.21-.42.42-.42h5.66c.21 0 .42.21.42.42l-.21 17.76.21 18.08c0 .21-.21.42-.42.42z" fill="#580388" data-color="1"></path>
        <path d="m138.8 20.64.05 16.35c0 .21-.21.42-.42.42h-5.24c-.21 0-.42-.21-.42-.42l.16-18.02-.16-17.82c0-.21.21-.42.42-.42h6.86c.26 0 .52.16.63.37l16.98 28.19-.05-1.83-.21-8.8V1.15c0-.21.21-.42.42-.42h5.19c.21 0 .42.21.42.42l-.16 17.82.16 18.02c0 .21-.21.42-.42.42h-7.13a.74.74 0 0 1-.63-.37L138.54 9.27l.1 2.57z" fill="#580388" data-color="1"></path>
        <path d="M195.23 37.41c-.21 0-.42-.21-.42-.42l.1-4.14c-2.57 3.51-6.5 5.29-11.53 5.29-10.43 0-17.5-7.6-17.5-19.13S172.91 0 183.44 0c8.65 0 14.2 4.4 16.03 12.1.05.21-.1.42-.31.42h-5.76c-.26 0-.47-.16-.52-.42-1.21-4.61-4.45-6.97-9.43-6.97-6.97 0-10.9 5.45-10.9 13.99s4.14 13.89 11.16 13.89c6.18 0 9.54-3.77 9.8-10.22h-10.22c-.21 0-.42-.21-.42-.42v-4.03c0-.21.21-.42.42-.42h16.09c.21 0 .42.21.42.42v18.65c0 .21-.21.42-.42.42h-4.14Z" fill="#580388" data-color="1"></path>
        <path d="M207.95 37.75q-1.515 0-2.58-1.05c-.71-.7-1.07-1.56-1.07-2.57s.36-1.86 1.07-2.57q1.065-1.05 2.58-1.05c1.515 0 1.86.35 2.57 1.05.7.7 1.05 1.56 1.05 2.57s-.35 1.86-1.05 2.57c-.7.7-1.56 1.05-2.57 1.05" fill="#580388" data-color="1"></path>
        <path d="M213.98 36.72 226.87.71c.07-.19.24-.31.44-.31h6.21c.2 0 .37.12.44.31l13.03 36.01a.47.47 0 0 1-.44.63h-5.07c-.2 0-.38-.13-.44-.32l-7.08-20.3c-.56-1.7-1.18-3.67-1.85-5.89-.63-2.08-1.35-4.57-2.17-7.47a.469.469 0 1 1 .9 0c-.81 2.92-1.52 5.43-2.14 7.54-.66 2.25-1.26 4.19-1.81 5.83l-6.94 20.29c-.07.19-.24.32-.44.32h-5.07c-.33 0-.55-.32-.44-.63Zm6.99-9.54v-3.77c0-.26.21-.47.47-.47h18.11c.26 0 .47.21.47.47v3.77c0 .26-.21.47-.47.47h-18.11a.47.47 0 0 1-.47-.47" fill="#580388" data-color="1"></path>
        <path d="M254.76 1.07v36.01c0 .26-.21.47-.47.47h-4.71a.47.47 0 0 1-.47-.47V1.07c0-.26.21-.47.47-.47h4.71c.26 0 .47.21.47.47" fill="#580388" data-color="1"></path>
    </g>
</svg>